{
  "title": "The Best Of Me 2014 720p HDCAM FIRST ENG x264 Pimp4003",
  "uid": 11595011,
  "size": 2143180116,
  "categoryP": "video",
  "categoryS": "movies",
  "magnet": "?xt=urn:btih:b97a88df2c9dc8b68237087f091f1b0a03ddff05&amp;dn=The+Best+Of+Me+2014+720p+HDCAM+FIRST+ENG+x264+Pimp4003&amp;tr=udp%3A%2F%2Ftracker.openbittorrent.com%3A80&amp;tr=udp%3A%2F%2Fopen.demonii.com%3A1337&amp;tr=udp%3A%2F%2Ftracker.coppersurfer.tk%3A6969&amp;tr=udp%3A%2F%2Fexodus.desync.com%3A6969",
  "seeders": 121,
  "leechers": 1,
  "uploader": "shawnmurthy",
  "files": -1,
  "time": 1417273431,
  "description": "The Best Of Me 2014 720p HDCAM FIRST ENG x264 Pimp4003\n &lt;a href=&quot;\nhttp://www.imdb.com/title/tt1972779/&quot; rel=&quot;nofollow&quot; target=&quot;_NEW&quot;&gt;\nhttp://www.imdb.com/title/tt1972779/&lt;/a&gt;\n\nA pair of former high school sweethearts reunite after many years when they return to visit their small hometown.\n\nDirector: Michael Hoffman\nWriters: J. Mills Goodloe (screenplay), Will Fetters (screenplay), 1 more credit Â»\nStars: James Marsden, Michelle Monaghan, Luke Bracey | See full cast and crew Â»\n\nENJOY\n\nPIMP4003\n\nVideo\nID                                       : 1\nFormat                                   : MPEG-4 Visual\nFormat profile                           : Simple@L3\nFormat settings, BVOP                    : No\nFormat settings, QPel                    : No\nFormat settings, GMC                     : No warppoints\nFormat settings, Matrix                  : Default (H.263)\nCodec ID                                 : 20\nDuration                                 : 1h 51mn\nBit rate                                 : 2 398 Kbps\nWidth                                    : 1 280 pixels\nHeight                                   : 536 pixels\nDisplay aspect ratio                     : 2.40:1\nFrame rate mode                          : Variable\nFrame rate                               : 59.940 fps\nMinimum frame rate                       : 59.916 fps\nMaximum frame rate                       : 60.157 fps\nColor space                              : YUV\nChroma subsampling                       : 4:2:0\nBit depth                                : 8 bits\nScan type                                : Progressive\nCompression mode                         : Lossy\nBits/(Pixel*Frame)                       : 0.058\nStream size                              : 1.86 GiB (93%)\nWriting library                          : ZJMedia MPEG Encoder\nEncoded date                             : UTC 1970-01-01 00:00:00\nTagged date                              : UTC 1970-01-01 00:00:00\n\nAudio\nID                                       : 2\nFormat                                   : AAC\nFormat/Info                              : Advanced Audio Codec\nFormat profile                           : LC\nCodec ID                                 : 40\nDuration                                 : 1h 51mn\nBit rate mode                            : Variable\nBit rate                                 : 160 Kbps\nChannel(s)                               : 2 channels\nChannel positions                        : Front: L R\nSampling rate                            : 48.0 KHz\nCompression mode                         : Lossy\nStream size                              : 127 MiB (6%)\nEncoded date                             : UTC 1970-01-01 00:00:00\nTagged date                              : UTC 1970-01-01 00:00:00\n &lt;a href=&quot;\nhttp://i.imgur.com/z2fgksn.png&quot; rel=&quot;nofollow&quot; target=&quot;_NEW&quot;&gt;\nhttp://i.imgur.com/z2fgksn.png&lt;/a&gt; &lt;a href=&quot;\nhttp://i.imgur.com/7D8B0Zm.png&quot; rel=&quot;nofollow&quot; target=&quot;_NEW&quot;&gt;\nhttp://i.imgur.com/7D8B0Zm.png&lt;/a&gt; &lt;a href=&quot;\nhttp://i.imgur.com/VMdJS5v.png&quot; rel=&quot;nofollow&quot; target=&quot;_NEW&quot;&gt;\nhttp://i.imgur.com/VMdJS5v.png&lt;/a&gt;",
  "parsed": {
    "xt": "urn:btih:b97a88df2c9dc8b68237087f091f1b0a03ddff05",
    "dn": "The Best Of Me 2014 720p HDCAM FIRST ENG x264 Pimp4003",
    "tr": [
      "udp://exodus.desync.com:6969",
      "udp://open.demonii.com:1337",
      "udp://tracker.coppersurfer.tk:6969",
      "udp://tracker.openbittorrent.com:80"
    ],
    "infoHash": "b97a88df2c9dc8b68237087f091f1b0a03ddff05",
    "infoHashBuffer": {
      "type": "Buffer",
      "data": [
        185,
        122,
        136,
        223,
        44,
        157,
        200,
        182,
        130,
        55,
        8,
        127,
        9,
        31,
        27,
        10,
        3,
        221,
        255,
        5
      ]
    },
    "name": "The Best Of Me 2014 720p HDCAM FIRST ENG x264 Pimp4003",
    "announce": [
      "udp://exodus.desync.com:6969",
      "udp://open.demonii.com:1337",
      "udp://tracker.coppersurfer.tk:6969",
      "udp://tracker.openbittorrent.com:80"
    ],
    "urlList": []
  },
  "previous": 25,
  "peers": 9,
  "last_updated": "2016-12-27T11:19:24.620Z"
}